<?xml version="1.0" encoding="UTF-8" standalone="no"?><!DOCTYPE svg PUBLIC "-//W3C//DTD SVG 1.1//EN" "http://www.w3.org/Graphics/SVG/1.1/DTD/svg11.dtd"><svg width="100%" height="100%" viewBox="0 0 2863 2996" version="1.1" xmlns="http://www.w3.org/2000/svg" xmlns:xlink="http://www.w3.org/1999/xlink" xml:space="preserve" xmlns:serif="http://www.serif.com/" style="fill-rule:evenodd;clip-rule:evenodd;"><rect id="Artboard1" x="0" y="0" width="2862.66" height="2995.74" style="fill:none;"/><g id="Capa-1" serif:id="Capa 1"><g id="g5186"><path id="path2996" d="M1266.86,2755.03c-0,-0 -62.657,-461.108 -77.37,-685.462c-10.727,-163.563 6.461,-492.072 6.461,-492.072c-0,0 5.365,72.83 -27.6,78.629c-164.135,28.873 -588.79,68.88 -674.495,67.895c-19.162,-0.219 -20.067,-12.027 -35.654,-23.175c-16.248,-11.621 -82.191,9.318 -192.853,-12.775c-28.856,-5.76 -2.282,-29.19 -26.418,-42.488c-37.531,-20.679 -76.629,-14.396 -89.135,-80.222c-6.575,-34.608 17.908,-58.825 16.044,-76.656c-2.343,-22.421 -53.477,-21.543 -60.611,-75.764c-7.307,-55.529 28.524,-65.388 26.74,-89.135c-1.877,-24.985 -47.601,-45.669 -33.871,-122.114c15.201,-84.637 243.338,-62.395 243.338,-62.395c-0,0 -28.032,-31.394 -66.512,-91.489c-21.507,-33.586 -18.485,-113.014 -10.144,-145.609c27.003,-105.525 145.976,-166.07 206.792,-94.483c57.685,67.9 -37.102,131.864 -12.478,217.489c13.792,47.96 79.019,95.795 119.194,137.538c27.958,29.049 31.316,57.474 54.618,68.363c138.678,64.8 262.649,66.875 363.668,74.018c134.297,9.495 397.543,-28.559 397.543,-28.559c0,-0 -139.1,-99.177 -160.442,-335.147c-15.307,-169.242 37.14,-289.59 37.436,-308.406c0.33,-20.943 -42.963,-73.661 -31.439,-126.624c3.946,-18.14 17.845,-55.635 24.308,-73.038c6.769,-18.223 -17.895,-83.969 -3.744,-122.484c12.764,-34.739 67.847,-69.577 67.847,-69.577c0,-0 4.839,32.506 19.774,54.488c13.622,20.05 57.448,17.764 80.131,9.219c47.603,-17.933 73.346,-83.068 120.433,-102.315c46.673,-19.078 75.134,21.05 122.014,2.484c56.602,-22.416 54.959,-98.392 115.353,-106.059c47.16,-5.987 83.131,50.159 126.698,69.182c48.709,21.267 78.065,-1.522 119.06,32.304c35.409,29.217 47.914,66.538 73.866,104.404c41.853,61.063 102.108,91.929 124.931,162.352c23.434,72.307 35.613,161.309 16.891,232.649c-15.955,60.793 -72.078,119.239 -76.218,182.592c-1.658,25.379 42.032,52.345 19.731,116.379c-17.415,50.003 -56.53,86.133 -135.088,81.956c-28.056,-3.492 -69.721,78.886 -79.237,85.313c-9.354,6.318 -97.12,81.93 -133.192,110.201c166.485,-141.373 460.979,84.028 534.808,131.74c141.753,103.134 380.547,364.938 387.151,458.1c10.763,151.858 -266.756,556.992 -266.756,556.992c77.528,72.5 44.127,166.543 5.438,208.016c-38.689,41.474 -255.447,9.22 -255.447,9.22l68.786,133.396c0,-0 -207.721,96.391 -528.901,101.091c-321.18,4.701 -521.449,-119.962 -521.449,-119.962Z" style="fill:none;fill-rule:nonzero;stroke:#272c27;stroke-width:14.26px;"/><path id="path3019" d="M2064.41,1766.81c0,-0 100.056,61.879 164.188,86.181c54.314,20.581 179.44,62.431 179.44,62.431c0,0 -76.247,107.509 -104.878,161.415c-28.049,53.54 -74.64,138.793 -74.102,184.893c0.301,25.777 17.328,19.828 12.991,34.232c-7.621,21.859 -44.252,45.347 -55.078,72.507c-11.163,28.005 -13.044,75.546 -8.468,107.853c14.583,102.961 72.352,164.62 72.352,164.62" style="fill:none;fill-rule:nonzero;stroke:#272c27;stroke-width:14.26px;"/><path id="path3021" d="M1227.73,2449.11c-0,-0 165.161,142.424 478.326,130.508c404.005,-15.372 472.338,-87.21 472.338,-87.21" style="fill:none;fill-rule:nonzero;stroke:#272c27;stroke-width:14.47px;"/><path id="path3023" d="M1190.45,2103.72c-0,-0 64.075,47.204 97.124,65.185c38.178,20.773 100.704,49.154 124.359,39.277c39.177,-16.358 3.234,-263.233 5.368,-368.006c25.676,-230.03 43.205,-214.883 55.469,-319.337c-16.259,-27.927 -64.673,-50.769 -75.152,-102.462c-7.307,-36.046 12.303,-131.269 12.303,-131.269c-0,0 73.271,46.322 114.74,57.839c60.465,16.793 129.788,20.181 129.788,20.181c0,0 -156.106,-19.53 -158.594,-31.555c11.535,13.222 87.999,78.652 235.475,76.266c46.844,-0.759 106.246,-33.309 145.832,-68.307c35.622,-31.494 52.391,-103.608 52.391,-103.608" style="fill:none;fill-rule:nonzero;stroke:#272c27;stroke-width:13.98px;"/><path id="path3025" d="M2081.17,1252.96c-0,-0 -39.473,162.635 -95.199,217.919c-67.468,66.933 -244.109,106.173 -267.098,124.916c-22.887,18.659 -42.321,216.151 -45.098,335.916c-1.473,63.546 -15.225,335.911 5.572,353.86c31.663,27.326 162.817,16.38 243.491,1.566c84.941,-15.597 198.039,-41.66 228.185,-79.087c32.371,-40.19 67.526,-361.977 67.526,-361.977" style="fill:none;fill-rule:nonzero;stroke:#272c27;stroke-width:14.26px;"/><path id="path3027" d="M2241.13,2287.81c0,-0 61.442,67.267 102.208,84.132c68.357,28.28 166.536,27.378 166.536,27.378c-0,-0 -83.016,76.875 -91.961,121.718c-4.991,25.021 9.267,45.899 33.317,54.36c17.235,6.063 11.231,-15.809 11.231,-15.809" style="fill:none;fill-rule:nonzero;stroke:#272c27;stroke-width:15.29px;"/><path id="path3797" d="M648.838,1237.72c0,-0 88.164,176.255 63.585,263.186c-43.526,153.945 -155.682,220.578 -155.682,220.578" style="fill:none;fill-rule:nonzero;stroke:#272c27;stroke-width:15.01px;"/><path id="path3799" d="M451.307,1698.11c0,0 87.709,-29.738 150.818,-120.558c34.744,-50.001 23.752,-87.168 15.271,-103.792c-2.575,-5.048 -16.967,5.026 -18.858,5.898c7.779,-8.52 87.292,-40.555 92.379,-127.919c2.204,-37.848 -45.389,-115.583 -45.389,-115.583" style="fill:none;fill-rule:nonzero;stroke:#272c27;stroke-width:15.53px;"/><path id="path3801" d="M242.924,1648.88c-0,0 53.874,7.921 174.704,0c32.876,-2.155 67.392,-41.388 72.199,-67.742c4.377,-23.997 -27.126,-32.763 -36.545,-55.264c-2.691,-6.427 63.408,-15.512 65.959,-61.948c2.018,-36.735 -46.655,-81.902 -44.567,-96.266c1.678,-11.541 19.988,-18.64 27.632,-82.895c5.491,-46.158 -164.899,-148.855 -164.899,-148.855" style="fill:none;fill-rule:nonzero;stroke:#272c27;stroke-width:14.26px;"/><path id="path3803" d="M158.814,1491.26c-0,-0 67.53,-8.907 153.567,-3.27c69.63,4.562 150.723,42.505 150.723,42.505" style="fill:none;fill-rule:nonzero;stroke:#272c27;stroke-width:16.26px;"/><path id="path3805" d="M130.076,1331.06c-0,0 87.698,-29.006 177.47,-22.177c82.076,6.243 173.753,60.009 173.753,60.009" style="fill:none;fill-rule:nonzero;stroke:#272c27;stroke-width:17.62px;"/><path id="path3807" d="M2182.91,829.976c0,0 -25.974,-96.589 -53.481,-137.267c-29.201,-43.184 -98.939,-105.179 -98.939,-105.179c-0,-0 36.29,-25.584 58.829,-61.949c11.553,-18.641 4.819,-53.891 -7.131,-69.079c-10.65,-13.536 -41.442,-31.627 -65.069,-32.98c-27.648,-1.584 -107.147,25.421 -128.876,23.048c-25.612,-2.797 -79.191,-90.191 -122.592,-96.228c-38.756,-5.391 -95.372,42.567 -131.613,42.009c-34.689,-0.535 -71.216,-26.002 -95.527,-23.858c-51.472,4.54 -86.496,91.36 -145.965,124.643c-17.638,9.872 -58.091,13.758 -58.091,13.758c0,0 -5.754,41.088 -15.25,58.166c-11.063,19.897 -48.273,54.202 -48.273,54.202" style="fill:none;fill-rule:nonzero;stroke:#272c27;stroke-width:14.26px;"/><path id="path3809" d="M1593.93,650.461c-31.109,108.626 -71.172,129.421 -102.169,175.28c-4.23,6.259 5.921,20.307 15.118,32.044c9.396,11.991 34.107,30.525 34.107,30.525" style="fill:none;fill-rule:nonzero;stroke:#272c27;stroke-width:14.26px;"/><path id="path3811" d="M2024.54,799.929c-0,-0 18.373,8.094 23.353,12.726c6.109,5.683 13.58,18.554 13.58,18.554" style="fill:none;fill-rule:nonzero;stroke:#272c27;stroke-width:11.17px;"/><path id="path3813" d="M2030.53,751.266c-0,-0 23.592,15.243 33.007,25.338c10.804,11.583 28.607,39.841 28.607,39.841" style="fill:none;fill-rule:nonzero;stroke:#272c27;stroke-width:14.94px;"/><path id="path3815" d="M2028.52,703.099c-0,0 55.252,36.78 80.365,65.146c23.672,26.738 67.494,90.926 67.494,90.926" style="fill:none;fill-rule:nonzero;stroke:#272c27;stroke-width:16.57px;"/><path id="path3817" d="M2030.66,633.431c0,0 51.531,49.29 89.286,102.031c33.003,46.104 59.184,109.213 59.184,109.213" style="fill:none;fill-rule:nonzero;stroke:#272c27;stroke-width:15.89px;"/><path id="path3819" d="M1803.78,525.666c0,-0 24.522,8.427 45.426,29.039c24.112,23.774 34.619,44.073 34.619,44.073" style="fill:none;fill-rule:nonzero;stroke:#272c27;stroke-width:14.26px;"/><path id="path3821" d="M1370.85,549.418c0,0 15.214,-12.92 25.601,-18.744c11.2,-6.281 33.33,-10.248 33.33,-10.248" style="fill:none;fill-rule:nonzero;stroke:#272c27;stroke-width:14.26px;"/><path id="path3823" d="M1542.08,1165.15c-0,0 19.506,9.028 33.871,11.142c18.46,2.717 45.459,1.336 45.459,1.336" style="fill:none;fill-rule:nonzero;stroke:#272c27;stroke-width:14.26px;"/><path id="path3827" d="M1418.49,691.451c-0,31.698 -13.009,57.394 -29.056,57.394c-16.048,-0 -29.057,-25.696 -29.057,-57.394c0,-31.697 13.009,-57.393 29.057,-57.393c16.047,-0 29.056,25.696 29.056,57.393Z" style="fill:#272c27;fill-rule:nonzero;stroke:#272c27;stroke-opacity:0.99;stroke-width:4.17px;stroke-linejoin:round;stroke-miterlimit:2;"/><path id="path3829" d="M1751.46,705.569c-7.35,-2.202 46.269,-30.759 82.72,-14.974c42.39,18.357 44.406,82.071 33.423,72.838c-9.458,-7.95 -28.111,-29.225 -49.855,-41.229c-23.621,-13.039 -51.725,-12.272 -66.288,-16.635Z" style="fill:#272c27;fill-rule:nonzero;stroke:#272c27;stroke-width:14.26px;"/><path id="path3831" d="M1265.01,434.332c0,0 16.356,28.404 27.079,39.324c19.844,20.211 39.515,33.145 39.515,33.145" style="fill:none;fill-rule:nonzero;stroke:#272c27;stroke-width:16.74px;"/><path id="path5152" d="M1566.14,1175.06c-0,0 14.515,8.839 23.473,9.313c11.512,0.611 26.303,-5.623 26.303,-5.623" style="fill:none;fill-rule:nonzero;stroke:#272c27;stroke-width:12.89px;"/><g id="g5162"><path id="path5154" d="M1412.93,978.917c0,0 -18.418,30.622 -20.728,50.728c-2.511,21.855 16.361,55.312 16.361,55.312" style="fill:none;fill-rule:nonzero;stroke:#272c27;stroke-width:14.26px;"/><path id="path5156" d="M1793.68,944.636c-0,0 44.399,37.967 54.603,72.776c7.12,24.29 5.829,76.074 5.829,76.074" style="fill:none;fill-rule:nonzero;stroke:#272c27;stroke-width:12.85px;"/><path id="path5158" d="M1401,1053.44c11.345,10.084 124.195,70.705 194.494,71.393c89.111,0.871 250.482,-95.802 250.482,-95.802" style="fill:none;fill-rule:nonzero;stroke:#272c27;stroke-width:14.26px;"/><path id="path5160" d="M1412.34,1008.06c6.302,5.042 125.086,43.363 187.237,40.491c73.292,-3.388 206.947,-64.289 206.947,-64.289" style="fill:none;fill-rule:nonzero;stroke:#272c27;stroke-width:14.26px;"/><path id="path5176" d="M1804.77,985.021c-0,0 8.805,-3.914 15.62,-3.67c8.719,0.311 12.359,7.832 20.227,21.194c9.781,16.613 -9.158,34.987 -9.158,34.987" style="fill:none;fill-rule:nonzero;stroke:#272c27;stroke-width:14.26px;"/><path id="path5178" d="M1412.27,999.413c-0,0 -15.098,23.034 -17.802,34.354c-2.94,12.304 20.711,28.688 20.711,28.688" style="fill:none;fill-rule:nonzero;stroke:#272c27;stroke-width:14.26px;"/><path id="path5180" d="M1803.02,936.008c-0,0 55.184,73.879 56.608,77.623c1.238,3.256 -5.424,77.577 -5.424,77.577" style="fill:none;fill-rule:nonzero;stroke:#272c27;stroke-width:12.85px;"/></g><path id="path5182" d="M2177.72,2487.91c-0,-0 -31.656,-78.174 -29.155,-150.687c2.253,-65.349 38.632,-264.893 38.632,-264.893" style="fill:none;fill-rule:nonzero;stroke:#272c27;stroke-width:14.26px;"/><path id="path5184" d="M1491.32,826.191c-3.478,7.219 4.868,23.425 12.431,36.963c7.726,13.833 28.046,35.213 28.046,35.213" style="fill:none;fill-rule:nonzero;stroke:#272c27;stroke-width:13.89px;"/></g></g></svg>